<?xml version="1.0" encoding="utf-8"?>
<!-- Generator: Adobe Illustrator 16.0.0, SVG Export Plug-In . SVG Version: 6.00 Build 0)  -->
<!DOCTYPE svg PUBLIC "-//W3C//DTD SVG 1.1//EN" "http://www.w3.org/Graphics/SVG/1.1/DTD/svg11.dtd">
<svg version="1.1" xmlns="http://www.w3.org/2000/svg" xmlns:xlink="http://www.w3.org/1999/xlink" x="0px" y="0px"
	 width="850.39px" height="850.39px" viewBox="0 0 850.39 850.39" enable-background="new 0 0 850.39 850.39" xml:space="preserve">
<g id="Layer_1" display="none">
</g>
<g id="Layer_2">
	<linearGradient id="SVGID_1_" gradientUnits="userSpaceOnUse" x1="137.9302" y1="413.4697" x2="714.458" y2="413.4697">
		<stop  offset="0" style="stop-color:#71768A"/>
		<stop  offset="1" style="stop-color:#E2C6C2"/>
	</linearGradient>
	<polygon fill="#121620" stroke="url(#SVGID_1_)" stroke-width="15" stroke-miterlimit="10" points="426.769,737.327 
		146.013,575.896 145.438,252.039 425.619,89.612 706.376,251.042 706.95,574.9 	"/>
	<linearGradient id="SVGID_2_" gradientUnits="userSpaceOnUse" x1="226.6963" y1="179.7842" x2="321.7695" y2="179.7842">
		<stop  offset="0" style="stop-color:#71768A"/>
		<stop  offset="1" style="stop-color:#E2C6C2"/>
	</linearGradient>
	<polygon fill="url(#SVGID_2_)" points="226.696,197.969 302.202,217.537 321.77,142.031 	"/>
	<linearGradient id="SVGID_3_" gradientUnits="userSpaceOnUse" x1="532.6953" y1="645.7842" x2="627.7686" y2="645.7842">
		<stop  offset="0" style="stop-color:#71768A"/>
		<stop  offset="1" style="stop-color:#E2C6C2"/>
	</linearGradient>
	<polygon fill="url(#SVGID_3_)" points="627.769,627.6 552.264,608.031 532.695,683.537 	"/>
	<linearGradient id="SVGID_4_" gradientUnits="userSpaceOnUse" x1="227.6963" y1="645.7842" x2="322.7695" y2="645.7842">
		<stop  offset="0" style="stop-color:#71768A"/>
		<stop  offset="1" style="stop-color:#E2C6C2"/>
	</linearGradient>
	<polygon fill="url(#SVGID_4_)" points="227.696,627.6 303.201,608.031 322.77,683.537 	"/>
	<linearGradient id="SVGID_5_" gradientUnits="userSpaceOnUse" x1="532.6953" y1="180.7842" x2="627.7686" y2="180.7842">
		<stop  offset="0" style="stop-color:#71768A"/>
		<stop  offset="1" style="stop-color:#E2C6C2"/>
	</linearGradient>
	<polygon fill="url(#SVGID_5_)" points="627.769,198.969 552.264,218.537 532.695,143.031 	"/>
	<linearGradient id="SVGID_6_" gradientUnits="userSpaceOnUse" x1="139.8774" y1="413.8584" x2="195.1816" y2="413.8584">
		<stop  offset="0" style="stop-color:#71768A"/>
		<stop  offset="1" style="stop-color:#E2C6C2"/>
	</linearGradient>
	<polygon fill="url(#SVGID_6_)" points="140.178,469.013 195.182,413.709 139.877,358.705 	"/>
	<linearGradient id="SVGID_7_" gradientUnits="userSpaceOnUse" x1="657.377" y1="413.0962" x2="712.6816" y2="413.0962">
		<stop  offset="0" style="stop-color:#71768A"/>
		<stop  offset="1" style="stop-color:#E2C6C2"/>
	</linearGradient>
	<polygon fill="url(#SVGID_7_)" points="712.381,468.25 657.377,412.947 712.682,357.942 	"/>
	<linearGradient id="SVGID_8_" gradientUnits="userSpaceOnUse" x1="224.0078" y1="413.0957" x2="626.3818" y2="413.0957">
		<stop  offset="0" style="stop-color:#71768A"/>
		<stop  offset="1" style="stop-color:#E2C6C2"/>
	</linearGradient>
	<polygon fill="none" stroke="url(#SVGID_8_)" stroke-width="12" stroke-miterlimit="10" points="232.493,413.097 321.108,501.713 
		338.858,500.14 337.491,518.095 425.194,605.798 513.771,517.221 513.517,500.517 530.578,500.415 617.896,413.096 
		530.667,325.868 514.25,324.75 513.338,308.538 425.195,220.395 337.93,307.66 338.375,325.375 321.018,324.572 	"/>
	<linearGradient id="SVGID_9_" gradientUnits="userSpaceOnUse" x1="271.5439" y1="413.8589" x2="580.4551" y2="413.8589">
		<stop  offset="0" style="stop-color:#71768A"/>
		<stop  offset="1" style="stop-color:#E2C6C2"/>
	</linearGradient>
	<linearGradient id="SVGID_10_" gradientUnits="userSpaceOnUse" x1="270.8369" y1="413.8589" x2="581.1621" y2="413.8589">
		<stop  offset="0" style="stop-color:#71768A"/>
		<stop  offset="1" style="stop-color:#E2C6C2"/>
	</linearGradient>
	<polygon fill="url(#SVGID_9_)" stroke="url(#SVGID_10_)" stroke-miterlimit="10" points="271.544,413.859 342.571,484.888 
		356.798,483.627 355.703,498.019 425.999,568.314 496.996,497.317 496.792,483.929 510.467,483.848 580.455,413.858 
		510.538,343.943 497.38,343.047 496.648,330.053 426,259.403 356.054,329.349 356.411,343.548 342.499,342.905 	"/>
	<linearGradient id="SVGID_11_" gradientUnits="userSpaceOnUse" x1="240.7383" y1="290.21" x2="302.3498" y2="228.5984">
		<stop  offset="0" style="stop-color:#71768A"/>
		<stop  offset="1" style="stop-color:#E2C6C2"/>
	</linearGradient>
	<rect x="240.738" y="228.598" fill="url(#SVGID_11_)" width="61.612" height="61.612"/>
	<linearGradient id="SVGID_12_" gradientUnits="userSpaceOnUse" x1="549.4268" y1="290.2104" x2="611.0386" y2="228.5986">
		<stop  offset="0" style="stop-color:#71768A"/>
		<stop  offset="1" style="stop-color:#E2C6C2"/>
	</linearGradient>
	<rect x="549.426" y="228.598" fill="url(#SVGID_12_)" width="61.612" height="61.612"/>
	<linearGradient id="SVGID_13_" gradientUnits="userSpaceOnUse" x1="549.4258" y1="595.7148" x2="611.038" y2="534.1027">
		<stop  offset="0" style="stop-color:#71768A"/>
		<stop  offset="1" style="stop-color:#E2C6C2"/>
	</linearGradient>
	<rect x="549.426" y="534.103" fill="url(#SVGID_13_)" width="61.612" height="61.612"/>
	<linearGradient id="SVGID_14_" gradientUnits="userSpaceOnUse" x1="244.4272" y1="595.7148" x2="306.0395" y2="534.1027">
		<stop  offset="0" style="stop-color:#71768A"/>
		<stop  offset="1" style="stop-color:#E2C6C2"/>
	</linearGradient>
	<rect x="244.427" y="534.103" fill="url(#SVGID_14_)" width="61.612" height="61.612"/>
</g>
<g id="Layer_3">
	<g>
		<circle fill="none" stroke="#131620" stroke-width="5" stroke-miterlimit="10" cx="428.612" cy="413.084" r="63.06"/>
		<path fill="#131620" d="M485.366,406.948c-6.817-24.201-34.257-38.858-61.015-32.723c-10.567,2.386-19.6,8.692-24.713,17.384
			c-4.602,7.669-5.795,16.703-3.409,25.053c4.09,14.316,20.282,23.18,36.302,19.601c6.307-1.364,11.76-5.284,14.828-10.397
			c2.727-4.602,3.579-10.056,2.044-15.168c-2.556-8.862-12.441-14.146-22.155-11.93c-3.92,0.852-7.329,3.238-9.204,6.477
			c-1.705,2.897-2.215,6.306-1.363,9.543c1.534,5.625,7.84,9.033,13.975,7.67c2.557-0.511,4.772-2.045,5.966-4.261
			c1.192-1.875,1.533-4.261,0.852-6.306c-0.341-1.193-1.022-2.215-1.874-3.068c-0.853-1.193-2.728-1.875-4.943-1.875h-0.171l0,0
			c0,0,0,0-0.17,0c-0.682,0-1.534,0.171-2.216,0.341l0,0l0,0c-0.17,0-0.341,0.17-0.511,0.17h-0.171
			c-1.704,0.682-2.896,1.705-2.896,3.068c0,2.045,2.557,3.579,5.794,3.579c2.046,0,3.749-0.511,4.772-1.534
			c0.341-0.34,1.022-0.17,1.022,0.682c0.171,2.216-0.341,6.136-5.966,7.328c-3.749,0.682-8.18-2.386-9.032-5.454
			c-0.512-1.875-0.853-4.943,0.17-6.646c1.193-2.045,4.09-4.773,6.647-5.455c7.158-1.534,15.509,2.386,17.384,8.693
			c1.022,3.75,0.171,8.521-1.875,11.93c-2.386,4.09-7.157,6.818-12.101,8.009c-13.293,3.068-26.247-4.09-29.485-15.849
			c-2.045-7.158-1.363-13.975,2.557-20.452c4.431-7.5,11.93-12.271,21.133-14.316c24.201-5.454,43.972,8.521,49.938,29.996
			c3.579,12.953,0.853,23.179-6.136,34.939c-8.011,13.463-29.315,32.383-57.777,25.564l26.247,7.499
			c17.895-4.09,33.234-14.828,41.927-29.484C487.411,436.264,489.457,421.265,485.366,406.948z"/>
		<path fill="#131620" d="M417.364,456.715c-14.657-0.341-28.462-9.204-37.836-19.088c-7.499-8.011-10.056-21.304-9.715-31.701
			l-7.67,3.238c-0.511,12.271,2.386,27.951,11.078,37.326c10.396,11.247,24.542,15.509,41.075,16.02c0.511,0,1.022,0,1.363,0
			c17.555,0,32.042-7.84,39.029-21.134l0,0C448.042,451.261,431.339,457.056,417.364,456.715z"/>
		<path fill="#131620" d="M383.618,378.486c3.75-11.419,18.407-19.429,31.53-23.52c10.738-3.238,26.247-1.193,37.835,2.556
			l-1.874-5.454c-13.635-4.261-31.53-5.795-44.142-2.045c-14.998,4.602-23.52,12.783-27.78,25.565
			c-0.171,0.341-0.171,0.682-0.341,1.023c-4.09,13.805-4.261,25.395,6.817,38.688C376.801,399.45,380.039,389.395,383.618,378.486z"
			/>
	</g>
</g>
<g id="Layer_4">
</g>
</svg>
